<?xml version="1.0" encoding="utf-8"?>
<!-- Generator: Adobe Illustrator 24.0.1, SVG Export Plug-In . SVG Version: 6.00 Build 0)  -->
<svg version="1.1" id="图层_1" xmlns="http://www.w3.org/2000/svg" xmlns:xlink="http://www.w3.org/1999/xlink" x="0px" y="0px"
     viewBox="0 0 389 387" style="enable-background:new 0 0 389 387;" xml:space="preserve">
<style type="text/css">
    .st0{fill:#333333;}
</style>
<g>
  <g>
    <path class="st0" d="M300.05,59.62L193.1-0.2L87.81,62.51l1.67,122.54l106.95,59.82l105.28-62.71L300.05,59.62z M196.19,227.19 L104.67,176l-1.43-104.86l90.1-53.67l91.52,51.19l1.43,104.86L196.19,227.19z"/>
    <polygon class="st0" points="233.85,84.57 233.74,59.7 154.6,105.45 154.71,130.46 187.08,111.69 187.08,200.37 196.74,205.25 205.25,199.51 205.25,101.15">
      <!-- <animate attributeName="fill" values="#3333333;#33333322;#3333333" dur="1.5s" repeatCount="indefinite"/> -->
    </polygon>
    <polygon class="st0" points="171.43,139.7 147.47,153.52 139.07,149.25 139.07,94.43 169.72,76.68 169.6,51.81 121.03,79.81 120.89,79.81 120.89,79.89 120.84,79.92 120.89,93.1 120.89,164.08 120.84,164.17 147.57,178.3 147.62,178.38 147.66,178.35 147.71,178.38 148.14,178.07 171.55,164.57">
      <!-- <animate attributeName="fill" values="#3333333;#33333322;#3333333" dur="1.5s" repeatCount="indefinite"/> -->
    </polygon>
    <polygon class="st0" points="268.63,111.39 268.51,86.52 222.83,112.44 222.93,136.11 222.93,190.04 241.1,179.32 241.1,127.08">
      <!-- <animate attributeName="fill" values="#3333333;#33333322;#3333333" dur="1.5s" repeatCount="indefinite"/> -->
    </polygon>
    <polygon class="st0" points="253.81,135.39 253.91,160.4 269.22,151.61 269.11,126.74">
      <!-- <animate attributeName="fill" values="#3333333;#33333322;#3333333" dur="1.5s" repeatCount="indefinite"/> -->
    </polygon>
  </g>
  <g>
    <!-- C -->
    <polygon class="st0" points="13.24,328.12 36.79,314.83 36.71,297.46 0.65,317.72 0.55,317.72 0.55,317.78 0.51,317.8 0.55,327 0.55,376 0.26,376.53 19.02,386.44 19.11,386.38 19.21,386.54 35.92,376.9 35.84,359.53 19.07,369.2 13.24,366.24       ">
      <animateMotion path="m 0 0 L 0 -40 L 0 0" begin="0s" dur="1s" fill="freeze" repeatCount="indefinite" />
    </polygon>
    <!-- T -->
    <polygon class="st0" points="99.79,292.71 59.78,315.02 59.85,332.48 74.66,324.19 74.66,385.13 87.35,378.44 87.35,317.08 99.87,310.07">
      <animateMotion path="m 0 0 L 0 -40 L 0 0" begin="0.1s" dur="1s" fill="freeze" repeatCount="indefinite" />
    </polygon>
    <!-- F -->
    <polygon class="st0" points="130.76,315.02 130.81,326.8 130.81,385.61 143.5,378.93 143.5,325.4 166.44,312.57 166.36,295.21">
      <animateMotion path="m 0 0 L 0 -40 L 0 0" begin="0.2s" dur="1s" fill="freeze" repeatCount="indefinite" />
    </polygon>
    <polygon class="st0" points="153.86,333.22 153.94,352.48 165.73,345.71 165.64,326.55">
      <animateMotion path="m 0 0 L 0 -40 L 0 0" begin="0.2s" dur="1s" fill="freeze" repeatCount="indefinite" />
    </polygon>
    <!-- H -->
    <polygon class="st0" points="228.19,330.73 210.95,340.4 210.95,308.98 198.27,316.34 198.27,387.04 210.95,380.35 210.95,357.88 228.19,348.16 228.19,374.03 240.88,367.34 240.88,295.97 228.19,303.33">
      <animateMotion path="m 0 0 L 0 -40 L 0 0" begin="0.3s" dur="1s" fill="freeze" repeatCount="indefinite" />
    </polygon>
    <!-- u -->
    <polygon class="st0" points="301.26,350.93 282.98,361.18 282.98,322.5 270.29,329.85 270.29,385.38 277.69,381.48 277.69,381.64 282.22,379.09 282.98,378.69 282.98,378.66 304.79,366.36 313.95,361.54 313.95,308.24 301.26,315.6">
      <animateMotion path="m 0 0 L 0 -40 L 0 0" begin="0.4s" dur="1s" fill="freeze" repeatCount="indefinite" />
    </polygon>
    <!-- b -->
    <polygon class="st0" points="388.65,315.47 378.98,321.08 378.98,320.94 354.3,334.77 354.3,297.41 341.61,304.77 341.61,387.04 354.3,380.35 354.3,352.27 375.97,340.05 375.97,352.37 364.69,358.61 364.77,376.07 381.75,366.6 388.65,362.96">
        <animateMotion path="m 0 0 L 0 -40 L 0 0" begin="0.5s" dur="1s" fill="freeze" repeatCount="indefinite" />
    </polygon>
  </g>
</g>
</svg>
